<?xml version="1.0" encoding="utf-8"?>
<svg viewBox="-175.658 -296.274 644.487 636.197" xmlns="http://www.w3.org/2000/svg">
  <ellipse style="stroke: rgb(0, 0, 0); fill: rgb(255, 255, 255);" cx="145.947" cy="23.287" rx="313.407" ry="313.407"/>
  <g transform="matrix(0.1, 0, 0, -0.1, -199.164902, 362.864594)" fill="black" stroke="none">
    <path d="M3368 6575 c-2 -1 -53 -5 -113 -8 -344 -18 -771 -123 -1110 -271 -517 -227 -987 -607 -1306 -1056 -302 -424 -473 -831 -560 -1335 -41 -236 -51 -553 -25 -795 71 -648 308 -1209 722 -1704 390 -466 942 -832 1546 -1025 282 -90 748 -159 983 -147 678 37 1208 207 1740 561 793 526 1305 1363 1410 2307 63 569 -58 1199 -332 1728 -168 326 -388 615 -663 873 -142 132 -218 193 -385 306 -505 342 -1002 513 -1630 561 -123 9 -269 12 -277 5z m-793 -490 c28 -9 89 -38 136 -65 214 -123 327 -160 488 -160 54 1 113 7 134 14 20 8 37 11 37 9 0 -18 -51 -81 -106 -132 -147 -135 -380 -197 -634 -170 -152 16 -241 41 -362 102 -60 30 -108 49 -108 43 0 -25 59 -103 121 -161 199 -185 495 -297 755 -283 46 2 84 1 84 -3 0 -16 -86 -80 -146 -109 -116 -56 -282 -80 -422 -60 -182 25 -330 98 -463 230 -96 95 -156 188 -191 299 -21 65 -25 71 -51 71 l-28 0 7 -177 c7 -204 -3 -300 -45 -408 -49 -128 -150 -253 -269 -333 -60 -42 -175 -102 -192 -102 -15 0 18 75 73 165 69 111 97 174 97 217 0 50 -11 53 -43 13 -15 -19 -68 -62 -118 -96 -98 -67 -160 -137 -193 -216 -30 -74 -27 -197 7 -294 15 -41 27 -79 27 -82 0 -4 -23 4 -51 19 -107 54 -202 187 -216 301 -21 181 87 365 400 682 78 79 187 181 242 226 256 210 631 437 779 471 71 16 177 11 251 -11z m2753 -612 l3 -63 -291 0 -290 0 0 65 0 65 288 -2 287 -3 3 -62z m132 -203 c42 -42 33 -116 -16 -139 -34 -15 -787 -16 -815 0 -30 16 -49 67 -37 99 24 63 1 60 445 60 388 0 404 -1 423 -20z m-3241 -308 c110 -71 209 -103 490 -157 224 -43 341 -122 341 -230 0 -67 -91 -98 -148 -50 -39 33 -48 32 -72 -7 -24 -40 -25 -75 -5 -163 13 -54 15 -128 13 -405 l-3 -338 -24 -26 c-35 -37 -113 -37 -167 1 -36 25 -46 27 -122 24 -54 -2 -88 2 -98 9 -24 21 -16 58 22 100 28 31 35 45 30 64 -3 13 -12 26 -19 29 -27 10 -348 -274 -530 -470 l-57 -62 -78 51 c-42 28 -105 79 -140 112 -51 48 -65 57 -72 46 -20 -32 -9 -106 31 -220 23 -63 47 -141 54 -174 l14 -58 -46 -117 c-44 -109 -47 -123 -51 -231 -9 -244 62 -378 287 -539 210 -150 271 -265 256 -484 -11 -157 17 -234 134 -362 72 -78 109 -136 126 -195 7 -23 5 -23 -26 9 -50 50 -93 76 -203 121 -132 53 -175 80 -230 141 -65 73 -86 145 -86 303 0 195 -31 273 -153 386 -39 36 -101 94 -137 130 -105 103 -123 175 -105 406 11 139 -10 207 -101 334 -100 140 -109 163 -109 300 0 130 7 154 90 345 l52 120 -5 95 c-7 169 41 434 120 649 l23 64 95 50 c52 27 122 69 156 92 124 89 226 227 266 362 l22 72 50 -44 c28 -23 80 -61 115 -83z m3115 6 c3 -13 6 -69 6 -125 0 -76 3 -103 13 -103 21 0 189 -90 264 -142 90 -62 219 -195 282 -292 208 -319 231 -718 60 -1057 -24 -48 -34 -58 -74 -73 -37 -15 -72 -46 -186 -171 -77 -84 -150 -160 -163 -168 l-23 -15 -12 76 c-10 70 -10 78 6 90 10 7 47 38 83 70 185 161 269 319 306 575 14 97 15 130 5 194 -36 241 -120 413 -274 561 l-66 63 -505 -1 -505 -1 -80 -84 c-121 -126 -196 -256 -237 -410 -29 -106 -26 -342 4 -449 44 -155 107 -267 212 -379 l58 -63 -45 -72 c-25 -40 -51 -72 -58 -72 -18 0 -148 141 -197 213 -61 90 -135 252 -158 347 -29 121 -36 291 -16 415 54 350 272 643 601 807 l105 52 0 118 0 118 294 0 294 0 6 -22z m-4544 -376 c0 -34 50 -119 121 -203 39 -46 84 -111 100 -144 50 -105 55 -231 13 -341 -9 -24 -20 -41 -25 -38 -5 3 -7 -1 -4 -8 3 -7 -10 -32 -28 -54 l-33 -42 0 67 c-1 70 -29 155 -64 186 -16 15 -18 12 -22 -52 -4 -43 -22 -118 -51 -203 -25 -74 -49 -159 -53 -187 -3 -29 -10 -53 -14 -53 -13 0 -77 93 -108 156 -43 87 -57 155 -56 284 0 91 6 137 27 222 32 124 91 275 144 365 38 64 53 77 53 45z m4621 -261 c38 -38 40 -91 4 -126 -53 -54 -145 -16 -145 59 0 50 9 66 44 82 46 20 65 17 97 -15z m-798 -152 c33 -15 57 -60 57 -107 0 -58 -43 -102 -99 -102 -52 0 -84 15 -104 50 -59 98 41 207 146 159z m422 -59 c25 0 74 -51 84 -87 13 -45 -4 -90 -45 -122 -60 -47 -165 -3 -180 75 -9 46 22 104 66 127 19 9 41 15 48 12 8 -3 20 -5 27 -5z m274 -364 c109 -57 70 -226 -53 -226 -48 0 -80 19 -101 60 -55 106 50 219 154 166z m-4219 -292 c-79 -295 -63 -410 78 -584 25 -30 57 -80 71 -110 27 -59 28 -65 21 -320 -5 -180 44 -282 203 -424 124 -110 166 -178 182 -294 7 -54 -7 -75 -19 -27 -13 50 -115 138 -251 215 -147 84 -217 146 -258 231 -40 80 -49 154 -35 269 24 186 13 225 -104 355 -39 43 -83 104 -97 135 -23 48 -26 67 -25 155 1 87 5 111 33 185 17 47 48 112 68 145 35 58 165 227 170 221 1 -1 -15 -69 -37 -152z m3681 63 c85 -57 79 -175 -11 -222 -55 -28 -117 -12 -159 41 -88 112 51 261 170 181z m842 -68 c36 -39 38 -99 2 -134 -18 -19 -35 -25 -70 -25 -35 0 -52 6 -70 25 -63 62 0 186 85 169 14 -2 37 -18 53 -35z m-3022 -33 c19 -8 42 -23 50 -33 51 -58 18 -95 -138 -157 -199 -79 -308 -152 -405 -270 -65 -78 -138 -201 -167 -279 -26 -72 -51 -211 -51 -288 0 -33 -4 -59 -9 -59 -18 0 -72 96 -94 165 -42 135 -22 327 50 468 109 217 304 389 508 448 75 22 210 24 256 5z m2609 -211 c34 -17 70 -64 93 -120 29 -70 85 -285 121 -466 20 -95 45 -209 57 -251 40 -144 64 -77 39 106 l-11 75 31 43 c68 94 385 450 414 465 17 9 52 17 77 17 90 2 113 -56 61 -155 -15 -30 -100 -182 -189 -339 -88 -157 -179 -322 -202 -368 -28 -56 -93 -147 -202 -283 -199 -249 -205 -260 -212 -332 -8 -80 -46 -157 -113 -228 -83 -86 -156 -123 -489 -248 -226 -85 -586 -225 -677 -262 -169 -71 -213 -107 -304 -253 -49 -77 -53 -81 -95 -88 -24 -3 -184 -7 -355 -7 -289 -1 -312 0 -316 17 -7 28 29 260 62 388 34 137 100 279 182 394 30 41 84 125 122 185 94 151 160 237 253 332 104 105 182 163 370 275 85 51 182 117 214 146 69 62 144 172 328 479 137 230 187 292 239 295 85 4 131 -22 168 -98 22 -45 27 -69 27 -137 1 -81 0 -83 -65 -217 -37 -74 -145 -270 -240 -435 -96 -165 -177 -308 -181 -317 -6 -17 6 -18 158 -18 l163 0 45 53 c25 28 104 131 177 227 99 130 133 183 134 205 2 73 -16 417 -25 485 -6 41 -22 122 -36 179 -35 147 -23 207 50 251 38 24 87 26 127 5z m-2741 -324 c-8 -10 -36 -48 -62 -84 -67 -91 -98 -174 -104 -272 -7 -97 14 -186 58 -258 61 -99 81 -102 63 -9 -46 238 29 437 199 522 71 35 153 40 233 13 73 -25 151 -107 209 -222 69 -139 88 -219 88 -376 -1 -178 -19 -241 -142 -490 -98 -197 -121 -260 -121 -329 0 -20 -4 -36 -10 -36 -5 0 -10 8 -10 18 0 9 -16 62 -36 117 -24 67 -37 118 -37 155 -1 56 3 68 86 255 20 44 41 111 47 149 22 140 -20 336 -110 516 l-40 80 -26 -16 c-29 -20 -46 -50 -64 -116 -15 -58 -8 -137 26 -267 41 -159 32 -212 -60 -360 -69 -111 -79 -144 -74 -245 4 -69 11 -94 47 -168 50 -105 60 -154 50 -243 -8 -66 -59 -195 -76 -195 -5 0 -10 24 -11 54 -5 112 -59 220 -162 321 -99 97 -104 110 -105 310 0 167 -1 171 -30 235 -16 36 -58 103 -94 149 -94 124 -106 156 -105 276 0 111 19 177 75 271 56 91 160 189 254 237 61 32 61 32 44 8z"/>
    <path d="M1960 4600 c-59 -39 -374 -300 -388 -321 -16 -25 -3 -56 33 -77 19 -12 35 -31 39 -48 36 -141 186 -274 310 -274 61 0 58 47 -4 75 -93 42 -160 149 -125 201 19 29 32 31 40 4 10 -30 82 -87 133 -104 25 -9 67 -16 94 -16 l48 0 0 -54 c0 -57 16 -86 49 -86 28 0 101 53 166 119 33 33 62 61 66 61 4 0 38 -24 75 -53 38 -29 75 -56 82 -61 11 -6 13 26 11 171 -1 140 2 189 15 228 20 63 20 118 1 156 -15 29 -16 29 -42 12 -56 -37 -222 -12 -460 66 -51 17 -94 31 -95 31 -2 0 -23 -14 -48 -30z m145 -266 c21 -8 45 -56 45 -89 0 -14 -11 -37 -25 -50 -53 -54 -145 -16 -145 60 0 63 63 102 125 79z"/>
  </g>
</svg>